<svg xmlns="http://www.w3.org/2000/svg" xmlns:xlink="http://www.w3.org/1999/xlink" width="2000" zoomAndPan="magnify" viewBox="0 0 1500 1499.999933" height="2000" preserveAspectRatio="xMidYMid meet" version="1.0"><defs><clipPath id="08d12b78e3"><path d="M 215.308594 263.027344 L 1284.800781 263.027344 L 1284.800781 1026.527344 L 215.308594 1026.527344 Z M 215.308594 263.027344 " clip-rule="nonzero"/></clipPath><clipPath id="23ab8254c9"><path d="M 1284.691406 383.027344 L 1284.691406 906.484375 C 1284.691406 972.757812 1230.964844 1026.480469 1164.691406 1026.480469 L 335.304688 1026.480469 C 269.03125 1026.480469 215.308594 972.757812 215.308594 906.484375 L 215.308594 383.027344 C 215.308594 316.753906 269.03125 263.027344 335.304688 263.027344 L 1164.691406 263.027344 C 1230.964844 263.027344 1284.691406 316.753906 1284.691406 383.027344 Z M 1284.691406 383.027344 " clip-rule="nonzero"/></clipPath></defs><g clip-path="url(#08d12b78e3)"><g clip-path="url(#23ab8254c9)"><path stroke-linecap="butt" transform="matrix(0.75, 0, 0, 0.75, 215.301576, 263.028238)" fill="none" stroke-linejoin="miter" d="M 1425.853229 159.998821 L 1425.853229 857.94159 C 1425.853229 946.306181 1354.217806 1017.936395 1265.853215 1017.936395 L 160.004162 1017.936395 C 71.639571 1017.936395 0.00935646 946.306181 0.00935646 857.94159 L 0.00935646 159.998821 C 0.00935646 71.63423 71.639571 -0.00119253 160.004162 -0.00119253 L 1265.853215 -0.00119253 C 1354.217806 -0.00119253 1425.853229 71.63423 1425.853229 159.998821 Z M 1425.853229 159.998821 " stroke="#434343" stroke-width="280" stroke-opacity="1" stroke-miterlimit="4"/></g></g><path stroke-linecap="round" transform="matrix(0.75, 0, 0, 0.75, 509.999989, 1131.971594)" fill="none" stroke-linejoin="miter" d="M 70.00002 70.001422 L 570.000063 70.001422 " stroke="#434343" stroke-width="140" stroke-opacity="1" stroke-miterlimit="4"/><path stroke-linecap="round" transform="matrix(0, -0.75, 0.75, 0, 697.499973, 1184.47159)" fill="none" stroke-linejoin="miter" d="M 69.998584 70.000042 L 249.9986 70.000042 " stroke="#434343" stroke-width="140" stroke-opacity="1" stroke-miterlimit="4"/></svg>