<?xml version="1.0" encoding="UTF-8"?>
<svg version="1.1" xmlns="http://www.w3.org/2000/svg" width="2000" height="2000">
<path d="M0 0 C0.78523544 -0.00983917 1.57047089 -0.01967834 2.37950134 -0.02981567 C34.90494484 -0.3531131 65.97127046 3.58820664 95.46875 18.23828125 C96.70020752 18.8418042 96.70020752 18.8418042 97.95654297 19.45751953 C109.51898129 25.16775799 120.3046887 31.29112618 130.46875 39.23828125 C131.4175 39.97691406 132.36625 40.71554687 133.34375 41.4765625 C146.6950274 52.15379144 158.68471928 64.30473112 170.75268555 76.37695312 C172.46377175 78.08504149 174.17506084 79.79292663 175.88653564 81.50062561 C180.0248167 85.63103787 184.16075043 89.76378877 188.29537924 93.89785683 C191.65910272 97.26110228 195.02362048 100.62355112 198.38868141 103.98545837 C207.95854142 113.54653381 217.52632524 123.10967987 227.09141757 132.67552501 C227.86177989 133.44594726 227.86177989 133.44594726 228.64770508 134.23193359 C229.16191585 134.74618525 229.67612662 135.2604369 230.20591954 135.79027194 C238.54651988 144.13127907 246.89210424 152.46727964 255.23994734 160.80103749 C263.84017245 169.38686729 272.43663106 177.97645262 281.02923042 186.56991434 C285.84202217 191.38303677 290.65631267 196.19463676 295.47467613 201.00218201 C300.0042514 205.52204345 304.52895671 210.04672493 309.05004883 214.57507133 C310.70385299 216.22991698 312.35934568 217.88307727 314.01670265 219.5343647 C322.29079888 227.78013238 330.35595337 235.94871594 337.46875 245.23828125 C338.0071284 245.92542458 338.5455068 246.6125679 339.1001997 247.32053375 C345.76510317 255.84648611 351.40901758 264.77258421 356.46191406 274.33447266 C357.40443751 276.11667388 358.36939856 277.88695801 359.3359375 279.65625 C382.66987082 323.88701694 386.01392293 379.07267942 371.95581055 426.63183594 C360.34181575 463.82227769 339.66273773 492.56777549 312.27105713 519.79000854 C310.5604906 521.50116851 308.85058709 523.21299147 307.1412828 524.9254123 C303.44992238 528.62052113 299.75401434 532.31101435 296.05386734 535.99732208 C290.55199958 541.4786698 285.05892753 546.96877119 279.56753661 552.46061246 C270.32561258 561.70282834 261.07683193 570.93815291 251.82410431 580.16955185 C242.6708113 589.30182021 233.52088768 598.4374442 224.37529755 607.57742691 C223.80516141 608.1472117 223.23502528 608.71699649 222.64761229 609.30404748 C219.75178836 612.19812839 216.85602922 615.09227412 213.96029851 617.9864483 C193.48519018 638.45038722 173.00351682 658.90774337 152.51757812 679.36083984 C147.56064991 684.30983608 142.60372913 689.25883976 137.64685059 694.20788574 C137.03187431 694.82189011 136.41689803 695.43589448 135.78328611 696.06850504 C121.47199823 710.3572916 107.16337616 724.6487465 92.85546875 738.94091797 C92.24191062 739.55379846 91.62835249 740.16667895 90.99620168 740.79813158 C76.99495349 754.78394372 62.99444602 768.77049706 48.99486923 782.75798225 C48.40705011 783.34529158 47.81923099 783.93260091 47.21359917 784.53770749 C41.92707877 789.81964525 36.64056211 795.10158674 31.3541691 800.38365199 C17.59882268 814.12770952 3.84124434 827.86952445 -9.92025056 841.60742582 C-18.53946235 850.21192646 -27.1570644 858.818037 -35.77337417 867.42544363 C-41.23273116 872.87901767 -46.69355255 878.3311165 -52.15638544 883.78120877 C-56.2248518 887.84047696 -60.29075894 891.90230031 -64.35565212 895.96514632 C-66.00782029 897.61564357 -67.66085424 899.26527467 -69.31480309 900.9139875 C-71.5488814 903.14121786 -73.77991262 905.37145499 -76.01015854 907.6025219 C-76.66480583 908.25368463 -77.31945312 908.90484737 -77.99393821 909.5757423 C-81.14501866 912.61571552 -81.14501866 912.61571552 -83.53125 916.23828125 C-84.19125 916.23828125 -84.85125 916.23828125 -85.53125 916.23828125 C-85.53125 916.89828125 -85.53125 917.55828125 -85.53125 918.23828125 C-87.90625 920.86328125 -87.90625 920.86328125 -90.53125 923.23828125 C-91.19125 923.23828125 -91.85125 923.23828125 -92.53125 923.23828125 C-92.77875 923.81578125 -93.02625 924.39328125 -93.28125 924.98828125 C-94.71424988 927.56768104 -96.31549676 929.29949717 -98.53125 931.23828125 C-99.19125 931.23828125 -99.85125 931.23828125 -100.53125 931.23828125 C-100.86125 932.22828125 -101.19125 933.21828125 -101.53125 934.23828125 C-103.96875 936.92578125 -103.96875 936.92578125 -106.53125 939.23828125 C-107.19125 939.23828125 -107.85125 939.23828125 -108.53125 939.23828125 C-108.86125 940.22828125 -109.19125 941.21828125 -109.53125 942.23828125 C-110.88462448 943.57244593 -110.88462448 943.57244593 -112.71502686 945.05457401 C-119.37220148 950.71253471 -125.42442649 956.9971851 -131.59082031 963.17759705 C-133.02056761 964.60690792 -134.45053479 966.03599888 -135.88070202 967.46488959 C-139.79841788 971.38037451 -143.71301737 975.29896208 -147.62710643 979.21807206 C-151.85286825 983.44815832 -156.08152581 987.67534809 -160.30982971 991.90289307 C-167.63141693 999.22395631 -174.95119081 1006.54682875 -182.26968384 1013.87098503 C-189.94299029 1021.55021404 -197.61733488 1029.22840314 -205.2930603 1036.90521431 C-205.77080002 1037.38302277 -206.24853975 1037.86083123 -206.74075643 1038.35311874 C-209.16708556 1040.77978622 -211.59343318 1043.20643521 -214.01978791 1045.63307709 C-231.19341619 1062.80880426 -248.36472621 1079.98684738 -265.53466797 1097.16625977 C-282.21220262 1113.8529828 -298.89079031 1130.53865217 -315.57080078 1147.22290039 C-316.08519786 1147.737429 -316.59959494 1148.2519576 -317.12957981 1148.78207799 C-322.29549636 1153.94931308 -327.46143428 1159.11652681 -332.62738786 1164.28372489 C-343.15047878 1174.80935184 -353.67342706 1185.33512137 -364.19628906 1195.86097717 C-364.68008442 1196.34490982 -365.16387978 1196.82884247 -365.6623356 1197.32743974 C-397.95436387 1229.62866443 -430.24305689 1261.933223 -462.53125 1294.23828125 C-461.86798229 1294.23852545 -461.20471459 1294.23876965 -460.52134786 1294.23902126 C-388.31849058 1294.26574635 -316.11563611 1294.29740877 -243.91279602 1294.35491943 C-242.29528553 1294.3562057 -242.29528553 1294.3562057 -240.64509805 1294.35751795 C-217.21051445 1294.37618307 -193.77593168 1294.39573553 -170.34134958 1294.4162022 C-158.84922994 1294.42623348 -147.35711013 1294.43606866 -135.86499023 1294.44580078 C-134.1495735 1294.44725849 -134.1495735 1294.44725849 -132.39950189 1294.44874565 C-95.32400469 1294.48015936 -58.24851476 1294.49862078 -21.17300655 1294.51037372 C16.92319187 1294.52251856 55.01935987 1294.54771386 93.11553801 1294.58935739 C98.49491957 1294.59523158 103.87430127 1294.6009564 109.25368309 1294.60659027 C110.31243471 1294.60770373 111.37118632 1294.60881719 112.46202132 1294.60996439 C129.5129937 1294.62751211 146.5639427 1294.63128045 163.6149229 1294.62991046 C180.75207449 1294.62882707 197.8891661 1294.64222576 215.02629492 1294.67044553 C225.2109085 1294.68677541 235.39538645 1294.69196294 245.58000825 1294.681253 C252.38284563 1294.67519318 259.18556574 1294.68360241 265.98837566 1294.70377355 C269.86488849 1294.71485375 273.74112544 1294.7196457 277.6176391 1294.7067937 C281.79610403 1294.69308749 285.97387946 1294.71030403 290.152318 1294.73047256 C291.35234946 1294.72156886 292.55238092 1294.71266515 293.78877696 1294.70349163 C305.59712051 1294.8131127 315.57961805 1298.35031433 324.46875 1306.23828125 C331.70378609 1314.11088757 335.48762977 1324.07603607 335.96875 1334.73828125 C335.39421668 1347.45214757 330.26023856 1357.0803397 321.03125 1365.55078125 C310.45848628 1374.07035202 299.04798218 1374.53310869 285.99881077 1374.48996353 C284.40759214 1374.49205098 282.81637446 1374.49501435 281.2251589 1374.49877226 C276.84418061 1374.50656929 272.46329032 1374.5018957 268.08231344 1374.49521636 C263.31900864 1374.49014891 258.55571748 1374.49666049 253.79241461 1374.50170302 C245.4408277 1374.50893369 237.08926663 1374.50870277 228.73767853 1374.5036087 C216.31780887 1374.49605377 203.89796107 1374.49990617 191.47809157 1374.50602532 C169.29331637 1374.51656819 147.10855267 1374.51563911 124.92377637 1374.50986749 C105.49903793 1374.50483877 86.0743037 1374.50352183 66.64956474 1374.50591278 C64.717719 1374.50614194 64.717719 1374.50614194 62.74684607 1374.50637572 C57.51882267 1374.5069984 52.29079927 1374.5076352 47.06277587 1374.50829525 C32.44672192 1374.51011856 17.83066796 1374.51127051 3.21461391 1374.51186752 C2.2161609 1374.51190846 2.2161609 1374.51190846 1.19753713 1374.51195022 C-20.01701852 1374.51276895 -41.2315727 1374.51051435 -62.44612789 1374.50616837 C-63.47838578 1374.50595762 -63.47838578 1374.50595762 -64.53149735 1374.50574261 C-75.70668081 1374.50345276 -86.88186423 1374.50101381 -98.05704765 1374.49856227 C-142.33515496 1374.48885916 -186.61325017 1374.48929183 -230.89135742 1374.49902344 C-242.04068214 1374.50146597 -253.19000687 1374.50388815 -264.33933163 1374.50616837 C-265.36919493 1374.50637971 -265.36919493 1374.50637971 -266.41986355 1374.50659532 C-287.59711942 1374.5109114 -308.77437429 1374.5127355 -329.95163059 1374.51186752 C-330.94969284 1374.51182677 -330.94969284 1374.51182677 -331.96791796 1374.51178519 C-347.23384075 1374.51113201 -362.49976342 1374.50972421 -377.76568609 1374.50779891 C-382.98952297 1374.50715749 -388.21335985 1374.50653181 -393.43719673 1374.50591278 C-394.7234354 1374.50575463 -396.00967407 1374.50559647 -397.33488967 1374.50543352 C-416.73323509 1374.50316144 -436.13157581 1374.50581401 -455.52992058 1374.51087189 C-477.60664089 1374.51659941 -499.6833479 1374.51514203 -521.76006656 1374.5043104 C-534.10576329 1374.49845243 -546.45143116 1374.49803322 -558.79712712 1374.50560275 C-567.05804986 1374.51010753 -575.31894962 1374.50726041 -583.57986897 1374.49859321 C-588.27750025 1374.49386406 -592.97507449 1374.49214903 -597.67270385 1374.49940518 C-657.19586748 1374.58440683 -712.56652797 1365.59178626 -757.87914753 1323.68727589 C-759.61963641 1322.08008009 -761.36852643 1320.48192503 -763.12649059 1318.89386272 C-771.36064746 1311.43672289 -779.2452998 1303.666415 -787.09301758 1295.8059082 C-788.51177754 1294.38850665 -789.93074941 1292.97131717 -791.34991455 1291.55432129 C-795.16799356 1287.74076269 -798.98294913 1283.92409432 -802.79717469 1280.10668206 C-806.80555343 1276.09575364 -810.8163918 1272.08728593 -814.826828 1268.07841492 C-821.55391164 1261.35314455 -828.27889758 1254.62578199 -835.00268555 1247.8972168 C-842.76256638 1240.13188611 -850.52605485 1232.37017618 -858.29140931 1224.61031944 C-864.97975086 1217.92652246 -871.66613355 1211.24077056 -878.35089606 1204.55339402 C-882.33440325 1200.5683326 -886.31857167 1196.58393858 -890.30451393 1192.60131264 C-894.0488799 1188.85984525 -897.79077215 1185.11592102 -901.5308075 1181.37012482 C-902.89929478 1180.00032096 -904.26862319 1178.6313568 -905.63887596 1177.26331902 C-918.18122438 1164.73937031 -918.18122438 1164.73937031 -923.22089958 1158.76926994 C-925.30689968 1156.33202681 -927.5953523 1154.11718958 -929.89453125 1151.8828125 C-930.86929876 1150.92839085 -931.84356571 1149.97345776 -932.81738281 1149.01806641 C-933.31258423 1148.53331848 -933.80778564 1148.04857056 -934.31799316 1147.5491333 C-942.75526767 1139.26340436 -950.90675743 1131.10168624 -957.53125 1121.23828125 C-957.96791992 1120.60293457 -958.40458984 1119.96758789 -958.85449219 1119.31298828 C-965.66843508 1109.36875848 -971.46485064 1099.16952614 -976.53125 1088.23828125 C-977.31242187 1086.60246094 -977.31242187 1086.60246094 -978.109375 1084.93359375 C-1000.0234038 1036.83806739 -999.53520491 981.07010017 -981.41015625 931.98828125 C-978.9042575 925.4842217 -975.88579685 919.29646422 -972.57275391 913.16943359 C-971.52118195 911.2196131 -970.50069512 909.25543141 -969.48046875 907.2890625 C-965.58280185 899.92680281 -961.2005194 893.12051985 -956.15625 886.48828125 C-955.66358643 885.83996338 -955.17092285 885.19164551 -954.66333008 884.52368164 C-946.08089048 873.54818025 -936.13754013 863.69770459 -926.28399658 853.87750244 C-925.08720896 852.68099559 -923.89064428 851.48426569 -922.69428039 850.28733516 C-919.43983026 847.03259232 -916.1822977 843.78095058 -912.92421746 840.52984214 C-909.39819832 837.0102424 -905.87512486 833.4876962 -902.35169983 829.96549988 C-896.2562227 823.87289926 -890.1589757 817.78207463 -884.0605545 811.69242096 C-875.23530806 802.87976876 -866.41333702 794.06384342 -857.59223911 785.24703893 C-843.26719028 770.92904538 -828.9402739 756.61292221 -814.61181641 742.29833984 C-813.32746994 741.01523509 -813.32746994 741.01523509 -812.01717708 739.70620903 C-805.93858396 733.63351715 -799.85992404 727.56089213 -793.78125 721.48828125 C-786.83051896 714.54448109 -779.87982008 707.60064873 -772.92919922 700.65673828 C-771.64460831 699.37338956 -771.64460831 699.37338956 -770.33406606 698.0641146 C-756.05194032 683.79567729 -741.77178026 669.52527425 -727.49301982 655.25346923 C-718.69369479 646.45862149 -709.89259664 637.66555531 -701.08919445 628.87478867 C-695.06050078 622.85452459 -689.03357897 616.83249058 -683.00804481 610.80906424 C-679.53302925 607.33539252 -676.05719053 603.86255486 -672.57914162 600.39192009 C-669.39309549 597.21264004 -666.20938255 594.03104254 -663.0274764 590.84761927 C-661.87850069 589.69891415 -660.72867936 588.55105408 -659.5779101 587.40414575 C-652.70870729 580.60178199 -652.70870729 580.60178199 -646.22707653 573.43494892 C-640.43463502 566.67553569 -633.95392592 560.52368073 -627.65870667 554.23875427 C-626.12785438 552.70674906 -624.59722004 551.17452603 -623.06678432 549.64210469 C-618.87030812 545.44145886 -614.67072463 541.24393169 -610.47061384 537.04692042 C-605.93773038 532.51630047 -601.40772653 527.98280286 -596.87734985 523.44967651 C-588.51821284 515.08634991 -580.15680159 506.72530159 -571.79420062 498.36543874 C-564.06823548 490.64199082 -556.34320248 482.9176121 -548.61909294 475.19230843 C-547.85005422 474.42315513 -547.85005422 474.42315513 -547.06547937 473.63846338 C-544.98420675 471.55687942 -542.90293767 469.47529193 -540.82167439 467.39369864 C-521.30447127 447.87343767 -501.78435513 428.35609202 -482.26293113 408.84005228 C-464.92568554 391.50755217 -447.59102684 374.17246883 -430.25854492 356.83520508 C-410.77780732 337.3491109 -391.2954526 317.86463588 -371.81049198 298.3827644 C-369.73273242 296.30532555 -367.65497679 294.22788276 -365.57722282 292.15043831 C-364.80984691 291.38318101 -364.80984691 291.38318101 -364.02696846 290.60042357 C-356.30723082 282.88182261 -348.58872626 275.16199006 -340.870821 267.44155693 C-332.09374883 258.66162429 -323.31484149 249.88353176 -314.5336761 241.10769277 C-310.05351525 236.63015992 -305.57415748 232.15183145 -301.09696388 227.67133141 C-296.99782163 223.56920771 -292.89637475 219.46940301 -288.79308402 215.37142909 C-287.30978666 213.88924801 -285.82732973 212.4062253 -284.34580404 210.92227333 C-271.25634018 197.81301993 -271.25634018 197.81301993 -265.13292366 192.61333984 C-262.60108477 190.43972177 -260.26909759 188.10212145 -257.90879822 185.74281311 C-257.40054129 185.23611617 -256.89228436 184.72941923 -256.3686257 184.20736784 C-254.69382778 182.53650658 -253.02256526 180.86215663 -251.35131836 179.18774414 C-250.14004285 177.97782594 -248.92855521 176.76812008 -247.71687317 175.55860901 C-244.44605274 172.29232375 -241.17837495 169.02291174 -237.911412 165.75276875 C-234.48090134 162.31971419 -231.04793764 158.88911397 -227.6153717 155.45811462 C-221.85302866 149.69758736 -216.09278916 143.93496299 -210.33374023 138.17114258 C-203.68956342 131.52152429 -197.041792 124.87551595 -190.39214224 118.23137099 C-184.66777813 112.51155486 -178.94537759 106.78977977 -173.22459322 101.0663833 C-169.81447128 97.65470786 -166.40369046 94.2436985 -162.99113274 90.8344593 C-159.78196277 87.62819258 -156.57527679 84.41946153 -153.37043571 81.20886803 C-152.1986828 80.03580062 -151.02609253 78.86356889 -149.85257339 77.69226837 C-144.36753688 72.21664101 -138.92432622 66.7491235 -133.91045475 60.83016109 C-122.37381491 47.51455699 -106.6882625 36.04563875 -91.53125 27.23828125 C-90.74878906 26.77953613 -89.96632813 26.32079102 -89.16015625 25.84814453 C-62.32325005 10.36177914 -31.16235814 0.32493378 0 0 Z M-22.53125 83.23828125 C-23.6140625 83.55176514 -23.6140625 83.55176514 -24.71875 83.87158203 C-32.84579696 86.29336946 -40.42381558 89.4417339 -47.84375 93.55078125 C-48.44082764 93.88102295 -49.03790527 94.21126465 -49.65307617 94.55151367 C-62.62661362 102.10316945 -72.93557231 112.21655326 -83.4385376 122.7848053 C-85.01980404 124.36476168 -86.60173035 125.94405789 -88.18425441 127.52275461 C-92.50789068 131.83971343 -96.82216824 136.16591846 -101.13491654 140.49375093 C-105.31656962 144.68706306 -109.5053206 148.87326989 -113.69388601 153.05967487 C-122.25512439 161.61698309 -130.80939591 170.18122329 -139.35965729 178.74949837 C-147.8200168 187.22763626 -156.28349574 195.70264016 -164.75112152 204.17352104 C-165.54218139 204.96489024 -165.54218139 204.96489024 -166.34922227 205.7722467 C-169.02772778 208.45176727 -171.70628876 211.13123238 -174.3848711 213.81067615 C-193.3350185 232.76711727 -212.27820777 251.73049758 -231.21728516 270.69799805 C-249.61121301 289.11949886 -268.00830414 307.5378312 -286.40966797 325.9519043 C-286.97732496 326.51995586 -287.54498195 327.08800743 -288.12984066 327.67327268 C-293.83072215 333.37810988 -299.5316678 339.08288296 -305.23266046 344.78760906 C-316.84523709 356.40779341 -328.45738554 368.02840561 -340.0692749 379.64927673 C-340.6031187 380.1835324 -341.1369625 380.71778807 -341.68698339 381.26823331 C-377.30891596 416.91774696 -412.92083567 452.57726239 -448.53125 488.23828125 C-446.9176461 492.27140062 -444.06757059 494.97787788 -441.03771782 497.97790909 C-440.46811657 498.54981802 -439.89851533 499.12172696 -439.31165344 499.71096647 C-437.39078942 501.63714845 -435.46284059 503.55608014 -433.53488159 505.47515869 C-432.14679515 506.86411683 -430.7591481 508.2535142 -429.37190449 509.64331412 C-425.54998556 513.46971761 -421.72183723 517.28983599 -417.89267421 521.10898829 C-413.76772592 525.22532033 -409.6485377 529.34740916 -405.52865601 533.46881104 C-398.38702442 540.61149263 -391.24173259 547.75049575 -384.09395981 554.88703156 C-373.75941517 565.20533985 -363.43037651 575.52914708 -353.10269322 585.85432217 C-336.34768736 602.60512593 -319.58804816 619.35128686 -302.82568359 636.09472656 C-286.54013399 652.36191082 -270.25668388 668.63119198 -253.97607422 684.90332031 C-253.47433448 685.40479699 -252.97259475 685.90627368 -252.45565078 686.42294662 C-247.41702877 691.45893162 -242.37844944 696.49495932 -237.33990138 701.53101831 C-227.07557262 711.79027449 -216.81095898 722.04924562 -206.5461731 732.30804443 C-206.0742034 732.77973955 -205.6022337 733.25143467 -205.11596189 733.73742358 C-173.59249588 765.24248472 -142.06236878 796.74087945 -110.53125 828.23828125 C-106.22818826 826.5785158 -103.34563428 823.33072942 -100.16362572 820.12513256 C-99.52380105 819.48851437 -98.88397639 818.85189619 -98.2247631 818.19598654 C-96.06745768 816.04702723 -93.91738736 813.89097026 -91.7671814 811.73490906 C-90.21210388 810.18285016 -88.65659204 808.63122633 -87.1006819 807.08000213 C-82.8146973 802.80434445 -78.53501735 798.52242379 -74.25632787 794.2394675 C-70.11813839 790.09907149 -65.97528066 785.96335529 -61.83257694 781.82747682 C-52.30826048 772.31842018 -42.79073908 762.80258176 -33.27528302 753.28465988 C-25.92391709 745.93146209 -18.57075911 738.5800607 -11.21632767 731.22992897 C-10.16010751 730.17431122 -9.10388796 729.11869286 -8.047669 728.06307391 C-6.45603312 726.47234528 -4.86439654 724.88161737 -3.27275608 723.29089334 C11.5324118 708.49415892 26.33552679 693.69537326 41.13439369 678.89233685 C41.69259862 678.33397554 42.25080355 677.77561423 42.82592378 677.20033289 C45.65515247 674.37029841 48.48436116 671.54024395 51.31356187 668.7101815 C51.87545173 668.14812055 52.43734159 667.5860596 53.01625842 667.0069665 C54.15253918 665.87033909 55.288819 664.73371074 56.42509788 663.59708145 C74.08890806 645.92791912 91.7593365 628.26540005 109.43505859 610.6081543 C129.29453373 590.76941386 149.14898615 570.92566617 168.99608934 551.07454807 C171.11435581 548.95588626 173.23263918 546.83724134 175.35093307 544.71860695 C175.87250373 544.19694557 176.39407438 543.67528419 176.9314502 543.13781488 C184.79425726 535.27384341 192.66095629 527.41377957 200.52965164 519.5557003 C209.48693135 510.61049303 218.43891538 501.66002448 227.3839701 492.70259168 C231.94642339 488.1342536 236.51122831 483.5683343 241.08262253 479.00894165 C245.27267686 474.82975966 249.4556668 470.64363638 253.63328175 466.45202074 C255.14081335 464.94184586 256.65084702 463.43416337 258.16370948 461.92932888 C283.87729785 436.34267172 300.55913813 407.14617186 300.78125 370.05078125 C300.82241934 337.39205704 289.07928001 308.67655808 266.76611328 284.97143555 C266.11464388 284.27834888 265.46317448 283.5852622 264.79196358 282.8711729 C256.94660341 274.56936256 248.86331049 266.50765493 240.7734375 258.4453125 C239.12511437 256.79886148 237.47701708 255.15218433 235.82913208 253.5052948 C231.54267381 249.22260732 227.25322132 244.94293173 222.96307373 240.66394043 C218.58551766 236.29668689 214.21085249 231.92653959 209.8359375 227.55664062 C202.78714917 220.51658709 195.73663711 213.47826563 188.68382263 206.44224548 C182.56681029 200.3395779 176.46180717 194.22513654 170.36474609 188.10253906 C162.17135903 179.87634636 153.97281754 171.6553063 145.77130699 163.4372139 C140.81566628 158.47127941 135.8619196 153.5034828 130.91259766 148.53125 C126.11335136 143.70980006 121.30877259 138.89371571 116.50099564 134.0807724 C114.6773511 132.25345387 112.85545736 130.42438621 111.03541183 128.59348297 C97.85649047 115.24215392 97.85649047 115.24215392 83.46875 103.23828125 C82.64152435 102.61246155 81.81429871 101.98664185 80.96200562 101.34185791 C51.76249534 79.65524216 12.30774651 72.9053516 -22.53125 83.23828125 Z M-509.13057399 548.70852387 C-509.64529301 549.22615575 -510.16001203 549.74378763 -510.6903286 550.27710533 C-511.23592835 550.82185084 -511.78152811 551.36659635 -512.34366119 551.92784929 C-514.19604821 553.77857431 -516.04480793 555.63288244 -517.89364624 557.4871521 C-519.22446672 558.81825224 -520.55550803 560.14913162 -521.88675272 561.4798075 C-525.56365673 565.15641431 -529.23742422 568.83614169 -532.91072416 572.51634884 C-536.86536323 576.4773346 -540.82287878 580.43544443 -544.78007507 584.39387512 C-551.64280493 591.25949821 -558.50375374 598.126897 -565.36356735 604.99543381 C-575.28460225 614.92899225 -585.20884785 624.85933798 -595.13399132 634.78879113 C-611.23853888 650.9004142 -627.34122473 667.01389604 -643.44238281 683.12890625 C-643.92454184 683.61147892 -644.40670087 684.09405159 -644.90347077 684.59124768 C-652.7275747 692.42206823 -660.55158355 700.25298379 -668.37557924 708.08391249 C-675.70346625 715.41829122 -683.03138742 722.75263582 -690.359375 730.08691406 C-690.84097434 730.568928 -691.32257369 731.05094193 -691.81876695 731.54756234 C-708.3413577 748.08435118 -724.86590602 764.61918208 -741.39201033 781.15245974 C-751.29551517 791.06045424 -761.1972324 800.97022893 -771.09668149 810.88227572 C-777.87718893 817.67118987 -784.65944618 824.45835249 -791.44310163 831.24412106 C-795.36163307 835.16400164 -799.27931686 839.08472027 -803.19483376 843.00761223 C-806.77523954 846.59473655 -810.35791117 850.1795811 -813.94244118 853.76258405 C-815.24279718 855.06321283 -816.54229431 856.36470094 -817.84087078 857.66710643 C-819.59845545 859.42963504 -821.35906028 861.18908931 -823.12048912 862.94777489 C-823.63052581 863.46072444 -824.1405625 863.97367399 -824.66605484 864.50216746 C-826.87007537 866.69684071 -828.93026736 868.50429282 -831.53125 870.23828125 C-831.53125 870.89828125 -831.53125 871.55828125 -831.53125 872.23828125 C-832.10875 872.48578125 -832.68625 872.73328125 -833.28125 872.98828125 C-835.86064979 874.42128113 -837.59246592 876.02252801 -839.53125 878.23828125 C-839.53125 878.89828125 -839.53125 879.55828125 -839.53125 880.23828125 C-840.10875 880.48578125 -840.68625 880.73328125 -841.28125 880.98828125 C-843.86064979 882.42128113 -845.59246592 884.02252801 -847.53125 886.23828125 C-847.53125 886.89828125 -847.53125 887.55828125 -847.53125 888.23828125 C-848.10875 888.48578125 -848.68625 888.73328125 -849.28125 888.98828125 C-851.86064979 890.42128113 -853.59246592 892.02252801 -855.53125 894.23828125 C-855.53125 894.89828125 -855.53125 895.55828125 -855.53125 896.23828125 C-856.10875 896.48578125 -856.68625 896.73328125 -857.28125 896.98828125 C-859.86064979 898.42128113 -861.59246592 900.02252801 -863.53125 902.23828125 C-863.53125 902.89828125 -863.53125 903.55828125 -863.53125 904.23828125 C-864.088125 904.46515625 -864.645 904.69203125 -865.21875 904.92578125 C-868.19284588 906.61378161 -870.25133865 908.70504642 -872.53125 911.23828125 C-872.53125 911.89828125 -872.53125 912.55828125 -872.53125 913.23828125 C-873.06492187 913.44066406 -873.59859375 913.64304687 -874.1484375 913.8515625 C-893.53233004 925.13235242 -906.05229876 953.38917364 -911.91308594 973.87207031 C-919.85853203 1004.28568149 -915.56828483 1037.62724134 -899.93286133 1064.95068359 C-891.40811187 1078.86409631 -880.47306088 1089.74382532 -868.84375 1101.11328125 C-866.19829907 1103.71593492 -863.55582437 1106.32154281 -860.91581726 1108.92971802 C-859.28561654 1110.53855895 -857.65190509 1112.14385368 -856.01399231 1113.74484253 C-854.89198677 1114.84736862 -854.89198677 1114.84736862 -853.74731445 1115.97216797 C-853.10018997 1116.60500702 -852.45306549 1117.23784607 -851.78633118 1117.88986206 C-849.96981413 1119.78156491 -848.27316548 1121.69933099 -846.57254028 1123.69203186 C-841.23414026 1129.82936965 -835.40810708 1135.50093676 -829.65454102 1141.24438477 C-828.35595387 1142.54432896 -827.05757912 1143.84448535 -825.75939941 1145.14483643 C-822.25138802 1148.65738601 -818.74024567 1152.16678986 -815.22837567 1155.67548108 C-811.54307696 1159.35823747 -807.86023076 1163.04344514 -804.17698669 1166.72825623 C-797.99275369 1172.91430547 -791.80642229 1179.09825033 -785.61889648 1185.28100586 C-778.47849416 1192.41596662 -771.34170129 1199.55452253 -764.20677239 1206.69495636 C-758.06657697 1212.83969845 -751.92442406 1218.98247876 -745.78064865 1225.12364143 C-742.11746184 1228.78527402 -738.45494258 1232.44756746 -734.79419136 1236.11163521 C-731.35154049 1239.5571874 -727.90642826 1243.00025994 -724.45944977 1246.44148254 C-723.19930375 1247.70031306 -721.93999536 1248.95998277 -720.68161583 1250.22057915 C-697.83856509 1273.1001403 -674.88867158 1288.43989618 -642.53125 1294.23828125 C-641.79132813 1294.37105469 -641.05140625 1294.50382812 -640.2890625 1294.640625 C-615.58859364 1298.14866824 -590.70147241 1292.77365916 -568.71875 1281.48828125 C-567.99107422 1281.11888428 -567.26339844 1280.7494873 -566.51367188 1280.36889648 C-552.5522183 1272.86041181 -541.56277536 1261.69945639 -530.50370789 1250.57150269 C-528.92157821 1248.99068342 -527.33878853 1247.41052449 -525.75540191 1245.83096421 C-521.4340284 1241.51626123 -517.12200198 1237.19232394 -512.81151783 1232.86674595 C-508.63064183 1228.67420221 -504.44265882 1224.48877281 -500.25486653 1220.30314017 C-491.69630152 1211.74850349 -483.14469806 1203.1869402 -474.59711266 1194.62133408 C-466.14037318 1186.14681136 -457.68050991 1177.67542701 -449.21650124 1169.20816422 C-448.68919673 1168.68065349 -448.16189222 1168.15314276 -447.61860879 1167.60964686 C-444.94041224 1164.93043524 -442.26216022 1162.25127909 -439.58388684 1159.57214428 C-420.63983963 1140.62180469 -401.70274938 1121.66452713 -382.76977539 1102.703125 C-364.38268524 1084.28845836 -345.99242918 1065.87696283 -327.59790039 1047.46972656 C-326.7466122 1046.6178465 -326.7466122 1046.6178465 -325.87812626 1045.74875674 C-320.17852441 1040.04519915 -314.47885837 1034.3417057 -308.77914532 1028.63825922 C-297.1693523 1017.02085864 -285.55998755 1005.40303014 -273.95088196 993.78494263 C-273.41717545 993.25082425 -272.88346894 992.71670587 -272.3335895 992.16640208 C-236.72563077 956.53086598 -201.12768657 920.88532646 -165.53125 885.23828125 C-169.337055 880.693506 -173.26694475 876.35776849 -177.46732807 872.17636204 C-178.03617998 871.60605669 -178.60503188 871.03575134 -179.19112173 870.44816402 C-181.08773264 868.54791915 -182.98786422 866.65123577 -184.88801575 864.75453186 C-186.26625147 863.37514331 -187.64426923 861.99553694 -189.02208823 860.61573213 C-192.80107794 856.8325717 -196.58317564 853.05253189 -200.36580026 849.27300632 C-204.44730187 845.19376764 -208.52592452 841.11165217 -212.60491943 837.02990723 C-220.5913794 829.03900088 -228.58054017 821.05080004 -236.57067297 813.06356633 C-243.06072597 806.57577085 -249.54980332 800.08700102 -256.03818321 793.59753227 C-256.96127684 792.67428541 -257.88437047 791.75103854 -258.83543664 790.7998145 C-260.71054494 788.92438648 -262.585651 787.04895621 -264.46075483 785.17352372 C-281.53977703 768.09163118 -298.62171968 751.01266147 -315.70479684 733.93482431 C-331.3098009 718.33457044 -346.91221114 702.73172684 -362.51245117 687.12670898 C-380.03742753 669.59638326 -397.56402065 652.06767663 -415.09320945 634.54156297 C-416.95994027 632.67515071 -418.826669 630.80873635 -420.69339561 628.94231987 C-421.6119337 628.02393606 -422.53047178 627.10555226 -423.47684434 626.15933864 C-429.96504337 619.67200485 -436.45207756 613.18350767 -442.9386692 606.69456673 C-450.83362478 598.79681465 -458.73034299 590.90083018 -466.62936828 583.00714839 C-470.66310158 578.97605347 -474.69601221 574.9441442 -478.72678185 570.91008568 C-482.4098804 567.22402721 -486.09524316 563.54024904 -489.78249737 559.85834771 C-491.12236779 558.51960274 -492.46137854 557.17999677 -493.7994828 555.83948649 C-495.60550402 554.03046489 -497.41451569 552.2244903 -499.22437763 550.41931248 C-499.75428257 549.88706638 -500.2841875 549.35482028 -500.83015016 548.80644551 C-504.97779543 544.6270735 -504.97779543 544.6270735 -509.13057399 548.70852387 Z " fill="#424242" transform="translate(1159.53125,312.76171875)"/>
<path d="M0 0 C12.0440411 8.44467249 16.65548257 19.3717614 20.42050171 33.1572876 C31.40665925 73.11407704 49.00869401 110.38106735 73.7890625 143.6796875 C74.315 144.38963867 74.8409375 145.09958984 75.3828125 145.83105469 C82.79276181 155.79262716 90.53076331 165.40909846 98.7890625 174.6796875 C99.25602539 175.20449707 99.72298828 175.72930664 100.20410156 176.27001953 C106.44023465 183.2363739 112.94348071 189.92895284 119.5390625 196.5546875 C120.23604248 197.25634033 120.93302246 197.95799316 121.65112305 198.6809082 C126.20142547 203.21718813 130.91388842 207.49663658 135.7890625 211.6796875 C136.86011233 212.6176483 137.93046689 213.55640384 139 214.49609375 C166.92691349 238.82349937 198.26362196 261.38704751 231.6640625 277.6171875 C240.14575824 281.77746659 245.40495719 288.10980404 249.125 296.80078125 C252.76307151 307.54728327 253.40231732 318.13510505 248.7890625 328.6796875 C242.63278347 340.02216522 234.27723895 345.92946088 223.0390625 351.8671875 C220.60093184 353.18443769 218.16913019 354.5131187 215.73828125 355.84375 C215.13789536 356.17151932 214.53750946 356.49928864 213.91893005 356.83699036 C183.97736864 373.25567902 156.45811604 394.50114963 131.265625 417.44921875 C129.86279595 418.71264996 128.45321689 419.96892786 127.02270508 421.20092773 C121.87533482 425.6376182 117.01784179 430.29989221 112.2265625 435.1171875 C111.15245117 436.18549805 111.15245117 436.18549805 110.05664062 437.27539062 C105.4279772 441.91247746 101.04361758 446.69853816 96.7890625 451.6796875 C96.32218018 452.21956299 95.85529785 452.75943848 95.37426758 453.31567383 C73.57012356 478.5547448 55.62999412 505.8144088 40.7890625 535.6796875 C40.37914062 536.50130371 39.96921875 537.32291992 39.546875 538.16943359 C30.71609419 556.11621758 24.48121541 575.4054493 19.31591797 594.70092773 C15.48340167 609.00540844 10.25836841 618.60223223 -2.85546875 626.21484375 C-12.82682163 631.11185563 -24.5697781 631.52110541 -35.1484375 628.1796875 C-44.80304013 624.01265536 -53.36483796 616.5849782 -57.40234375 606.7890625 C-59.47111009 600.80807467 -61.19657429 594.7422233 -62.9140625 588.65234375 C-78.46907842 533.9362888 -107.29686797 485.48696108 -146.11523438 444.11645508 C-148.43470787 441.64011872 -150.68300028 439.13509269 -152.828125 436.5078125 C-154.76780508 434.20563483 -156.59056969 432.33205142 -158.8984375 430.4296875 C-162.11135875 427.69810277 -165.07905439 424.8238486 -168.0234375 421.8046875 C-172.30350762 417.47210118 -176.81527439 413.6190301 -181.5703125 409.8203125 C-183.96196072 407.88152075 -186.24828778 405.87760169 -188.5234375 403.8046875 C-212.19056448 382.5800754 -240.15292019 364.33996032 -268.3984375 349.9296875 C-279.54136188 344.18485681 -287.70779818 337.14926946 -292.0234375 325.1171875 C-295.23329049 313.12635735 -293.79305408 301.66069055 -287.66796875 290.9921875 C-282.02366358 282.31261524 -274.648381 277.65103768 -265.5234375 273.1171875 C-243.00457812 261.57574259 -222.25121104 247.05436652 -202.2109375 231.6796875 C-201.58380859 231.19967285 -200.95667969 230.7196582 -200.31054688 230.22509766 C-193.44792926 224.95597267 -186.79240547 219.56657002 -180.41796875 213.70703125 C-178.48264465 211.92927336 -176.51690734 210.20392498 -174.5234375 208.4921875 C-170.47813243 204.95978409 -166.52761317 201.32680146 -162.5859375 197.6796875 C-161.95212158 197.09807861 -161.31830566 196.51646973 -160.6652832 195.91723633 C-156.95943416 192.47093715 -153.61392667 188.92559318 -150.45947266 184.96484375 C-150.04745605 184.54074219 -149.63543945 184.11664062 -149.2109375 183.6796875 C-148.5509375 183.6796875 -147.8909375 183.6796875 -147.2109375 183.6796875 C-146.94410156 183.08285156 -146.67726563 182.48601562 -146.40234375 181.87109375 C-145.18606818 179.63394426 -144.00736491 178.33548683 -142.1484375 176.6171875 C-138.33890094 172.90955212 -135.01694131 168.91990031 -131.6953125 164.7734375 C-130.01875954 162.68565457 -128.33065228 160.62824973 -126.6015625 158.5859375 C-112.57980502 141.821544 -100.42693786 122.97895178 -90.2109375 103.6796875 C-89.54954702 102.49199767 -88.88545556 101.30580815 -88.21875 100.12109375 C-75.58502788 77.46572374 -66.94507039 52.49189292 -60.4609375 27.4296875 C-58.09603127 18.36834085 -54.41445341 10.85412971 -47.2109375 4.6796875 C-46.66050781 4.18855469 -46.11007812 3.69742188 -45.54296875 3.19140625 C-32.54197471 -7.61148159 -14.40034703 -8.59950052 0 0 Z M-21.2109375 142.6796875 C-22.31025529 144.42421092 -23.35821074 146.20109551 -24.38671875 147.98828125 C-25.37260986 149.68561401 -25.37260986 149.68561401 -26.37841797 151.41723633 C-26.72821716 152.02129303 -27.07801636 152.62534973 -27.43841553 153.24771118 C-33.7644434 164.14736077 -40.37317188 174.6962053 -47.86572266 184.84033203 C-49.19926327 186.66372495 -50.49707619 188.50755593 -51.78515625 190.36328125 C-57.10461949 198.00813058 -62.83608968 205.13386518 -68.92773438 212.17431641 C-70.84634428 214.42510572 -72.67932897 216.74272181 -74.5234375 219.0546875 C-84.12190005 230.78427723 -94.89519841 241.45758712 -105.5859375 252.1796875 C-106.10181427 252.6982431 -106.61769104 253.21679871 -107.14920044 253.75106812 C-112.98984037 259.61470498 -118.90616829 265.31123632 -125.2109375 270.6796875 C-126.36790294 271.70084369 -127.52288264 272.72425451 -128.67578125 273.75 C-137.22792858 281.29579657 -146.08582993 288.31419786 -155.20361328 295.16162109 C-157.11362926 296.60609682 -159.00726353 298.0689414 -160.89453125 299.54296875 C-166.49750792 303.91863427 -172.07719442 308.07160334 -178.2109375 311.6796875 C-173.96083556 315.11787913 -169.62275263 318.43152943 -165.2734375 321.7421875 C-149.03709365 334.14487749 -133.30464526 346.89441261 -118.2109375 360.6796875 C-117.27507812 361.52273438 -116.33921875 362.36578125 -115.375 363.234375 C-108.51433978 369.45153895 -101.89299622 375.89351718 -95.3359375 382.4296875 C-94.14109741 383.61763916 -94.14109741 383.61763916 -92.92211914 384.82958984 C-88.14574343 389.61848619 -83.60456713 394.53903354 -79.2109375 399.6796875 C-78.22603002 400.80926525 -77.24038272 401.93819847 -76.25390625 403.06640625 C-70.12174915 410.1345687 -64.21582331 417.31861097 -58.609375 424.81298828 C-57.61337671 426.14249298 -56.61288803 427.46863873 -55.609375 428.79248047 C-42.83037159 445.65974382 -31.80244864 463.37886847 -21.2109375 481.6796875 C-18.06476576 478.99818112 -16.4286243 475.58076725 -14.5234375 471.9921875 C-4.76350929 454.18719463 7.12615749 437.5238697 19.7890625 421.6796875 C20.57539062 420.69226562 21.36171875 419.70484375 22.171875 418.6875 C24.35015871 415.99392337 26.56016215 413.33150741 28.7890625 410.6796875 C29.21977051 410.1640625 29.65047852 409.6484375 30.09423828 409.1171875 C41.03512116 396.045164 52.70341882 383.69587755 64.7265625 371.6171875 C65.41194092 370.92713623 66.09731934 370.23708496 66.8034668 369.52612305 C71.30274709 365.0410309 75.96992935 360.81699853 80.7890625 356.6796875 C82.01510151 355.61026696 83.24037851 354.53997211 84.46484375 353.46875 C95.19343063 344.12163245 106.11501462 335.14250006 117.4140625 326.4921875 C118.29723145 325.81438232 119.18040039 325.13657715 120.09033203 324.43823242 C125.5243876 320.30150557 131.05501234 316.38980123 136.7890625 312.6796875 C133.1582644 309.75636109 129.48684528 306.89273578 125.7890625 304.0546875 C125.22509766 303.6208374 124.66113281 303.1869873 124.08007812 302.73999023 C121.22955076 300.54791571 118.37416376 298.36275367 115.5078125 296.19140625 C108.80739965 291.10165005 102.32038486 285.82081958 95.9296875 280.34765625 C92.96989569 277.81759994 89.94777454 275.37074815 86.9140625 272.9296875 C83.24265561 269.94368074 79.8370108 266.86163264 76.56079102 263.45043945 C74.84194445 261.73254031 73.06265428 260.16253805 71.2109375 258.58984375 C66.15817386 254.19744704 61.44816717 249.48514079 56.7265625 244.7421875 C55.86740234 243.88689453 55.00824219 243.03160156 54.12304688 242.15039062 C49.6724593 237.69300307 45.3659077 233.17215558 41.26196289 228.39331055 C39.4050015 226.23285771 37.47186657 224.14729033 35.5390625 222.0546875 C30.49823468 216.4603904 25.87816538 210.58163671 21.28662109 204.61865234 C19.74080846 202.61721056 18.18162808 200.62669693 16.62109375 198.63671875 C3.36242621 181.6341934 -8.21999622 163.58856588 -18.86328125 144.84765625 C-19.53037109 143.77451172 -19.53037109 143.77451172 -20.2109375 142.6796875 C-20.5409375 142.6796875 -20.8709375 142.6796875 -21.2109375 142.6796875 Z " fill="#424242" transform="translate(1583.2109375,885.3203125)"/>
</svg>
