<svg xmlns="http://www.w3.org/2000/svg" xmlns:xlink="http://www.w3.org/1999/xlink" width="500" zoomAndPan="magnify" viewBox="0 0 375 374.999991" height="500" preserveAspectRatio="xMidYMid meet" version="1.0"><defs><clipPath id="985acaeaa0"><path d="M 21.132812 21.132812 L 354 21.132812 L 354 354 L 21.132812 354 Z M 21.132812 21.132812 " clip-rule="nonzero"/></clipPath><clipPath id="48b91eb1c4"><path d="M 78.738281 102 L 296.238281 102 L 296.238281 354 L 78.738281 354 Z M 78.738281 102 " clip-rule="nonzero"/></clipPath></defs><g clip-path="url(#985acaeaa0)"><path fill="#737373" d="M 353.863281 138.117188 L 309.5 65.234375 L 230.542969 112.238281 L 230.542969 21.132812 L 144.453125 21.132812 L 144.453125 112.238281 L 65.496094 65.234375 L 21.132812 138.117188 L 104.050781 187.5 L 21.132812 236.878906 L 65.496094 309.765625 L 144.453125 262.757812 L 144.453125 353.863281 L 230.542969 353.863281 L 230.542969 262.757812 L 309.5 309.765625 L 353.863281 236.878906 L 270.945312 187.5 Z M 353.863281 138.117188 " fill-opacity="1" fill-rule="nonzero"/></g><path fill="#ffffff" d="M 262.617188 34.742188 C 259.964844 31.960938 256.949219 29.648438 253.570312 27.804688 C 250.195312 25.960938 246.617188 24.679688 242.839844 23.953125 C 235.722656 22.335938 226.804688 21.085938 219.734375 23.097656 C 211.320312 25.40625 205.867188 32.339844 206.976562 37.910156 C 207.039062 37.882812 207.101562 37.882812 207.164062 37.910156 C 208.300781 38.570312 209.519531 39.027344 210.8125 39.273438 C 212.152344 39.566406 213.507812 39.699219 214.878906 39.664062 C 217.75 39.578125 220.5 38.964844 223.128906 37.816406 C 220.664062 39.425781 217.992188 40.542969 215.113281 41.167969 C 213.582031 41.421875 212.039062 41.507812 210.492188 41.421875 C 209.796875 41.421875 209.128906 41.28125 208.503906 41.167969 C 211.808594 44.933594 218.96875 46.15625 226.363281 43.753906 C 228.761719 42.808594 231.054688 41.660156 233.25 40.3125 C 234.054688 39.917969 234.882812 39.59375 235.738281 39.332031 C 236.59375 39.074219 237.464844 38.882812 238.351562 38.761719 C 239.234375 38.640625 240.125 38.589844 241.019531 38.613281 C 241.914062 38.632812 242.800781 38.722656 243.679688 38.886719 C 244.558594 39.050781 245.417969 39.28125 246.261719 39.578125 C 247.105469 39.878906 247.917969 40.242188 248.703125 40.671875 C 249.484375 41.101562 250.230469 41.589844 250.9375 42.136719 C 251.644531 42.6875 252.304688 43.285156 252.914062 43.9375 C 252.914062 43.9375 252.914062 43.9375 253.074219 44.125 C 257.695312 49.507812 257.695312 56.648438 253.328125 63.789062 C 249.5625 70.003906 240.945312 74.554688 230.730469 78.53125 C 223.488281 81.441406 216.078125 83.84375 208.503906 85.738281 C 207.117188 86.132812 196.742188 88.859375 195.355469 89.179688 C 195.355469 89.179688 186.550781 91.492188 175.738281 95.097656 L 225.507812 95.097656 C 228.511719 94.171875 231.449219 93.132812 234.382812 91.976562 C 248.683594 86.339844 259.613281 77.375 265.230469 66.558594 C 271.191406 55.167969 270.242188 43.546875 262.617188 34.742188 Z M 220.472656 31.738281 C 220.164062 31.738281 219.871094 31.679688 219.589844 31.5625 C 219.304688 31.445312 219.054688 31.277344 218.839844 31.0625 C 218.621094 30.847656 218.453125 30.597656 218.335938 30.3125 C 218.21875 30.03125 218.160156 29.734375 218.160156 29.429688 C 218.160156 29.121094 218.21875 28.828125 218.335938 28.542969 C 218.453125 28.261719 218.621094 28.011719 218.839844 27.792969 C 219.054688 27.578125 219.304688 27.410156 219.589844 27.292969 C 219.871094 27.175781 220.164062 27.117188 220.472656 27.117188 C 220.777344 27.117188 221.074219 27.175781 221.355469 27.292969 C 221.640625 27.410156 221.890625 27.578125 222.105469 27.792969 C 222.324219 28.011719 222.488281 28.261719 222.605469 28.542969 C 222.722656 28.828125 222.78125 29.121094 222.78125 29.429688 C 222.78125 29.734375 222.722656 30.03125 222.605469 30.3125 C 222.488281 30.597656 222.324219 30.847656 222.105469 31.0625 C 221.890625 31.277344 221.640625 31.445312 221.355469 31.5625 C 221.074219 31.679688 220.777344 31.738281 220.472656 31.738281 Z M 168.484375 318.257812 C 168.019531 318.703125 167.472656 318.867188 166.84375 318.742188 C 166.546875 318.679688 166.261719 318.585938 165.988281 318.464844 C 154.917969 313.84375 147.25 303.539062 149.976562 291.753906 C 151.914062 283.113281 158.109375 277.035156 165.804688 272.089844 L 170.425781 269.386719 L 170.425781 279.832031 C 165.933594 282.09375 162.15625 285.21875 159.101562 289.210938 C 151.476562 299.980469 160.351562 310.148438 168.34375 314.835938 C 168.582031 315.046875 168.769531 315.292969 168.910156 315.578125 C 169.046875 315.863281 169.121094 316.167969 169.132812 316.484375 C 169.148438 316.800781 169.097656 317.105469 168.984375 317.402344 C 168.871094 317.699219 168.703125 317.960938 168.484375 318.1875 Z M 211.96875 263.378906 C 209.445312 265.125 206.828125 266.710938 204.113281 268.140625 L 204.113281 253.121094 C 205.324219 252.089844 206.421875 250.945312 207.402344 249.691406 C 208.382812 248.4375 209.230469 247.097656 209.9375 245.671875 C 210.648438 244.246094 211.207031 242.761719 211.613281 241.222656 C 212.023438 239.683594 212.269531 238.121094 212.363281 236.53125 L 212.363281 236.277344 C 212.351562 234.6875 212.175781 233.117188 211.824219 231.570312 C 211.476562 230.019531 210.964844 228.527344 210.289062 227.085938 C 209.613281 225.648438 208.792969 224.300781 207.828125 223.039062 C 206.859375 221.78125 205.765625 220.640625 204.550781 219.617188 C 202.40625 217.742188 200.097656 216.101562 197.621094 214.695312 C 194.546875 212.945312 191.375 211.402344 188.101562 210.074219 C 184.519531 208.570312 180.867188 207.230469 177.195312 205.914062 C 167.867188 202.859375 158.808594 199.144531 150.019531 194.777344 C 139.160156 188.953125 130.242188 180.429688 126.914062 168.644531 C 133.738281 172.050781 140.800781 174.863281 148.101562 177.078125 C 152.691406 181.511719 157.921875 184.976562 163.792969 187.476562 C 166.472656 188.792969 169.339844 189.972656 172.273438 191.082031 C 173.84375 191.65625 175.460938 192.210938 177.054688 192.765625 L 181.675781 194.382812 C 184.679688 195.425781 187.683594 196.554688 190.664062 197.664062 C 192.976562 198.496094 195.285156 199.375 197.597656 200.300781 C 208.386719 204.597656 218.601562 210.257812 224.863281 220.773438 C 234.496094 236.945312 226.0625 253.351562 211.96875 263.308594 Z M 211.96875 263.378906 " fill-opacity="1" fill-rule="nonzero"/><g clip-path="url(#48b91eb1c4)"><path fill="#ffffff" d="M 233.203125 353.886719 L 141.519531 353.886719 C 141.410156 353.886719 141.304688 353.875 141.199219 353.851562 C 141.097656 353.824219 140.996094 353.785156 140.902344 353.738281 C 140.804688 353.6875 140.71875 353.625 140.640625 353.554688 C 140.558594 353.480469 140.488281 353.398438 140.429688 353.3125 C 140.371094 353.222656 140.324219 353.125 140.285156 353.023438 C 140.25 352.921875 140.226562 352.820312 140.21875 352.710938 C 140.207031 352.605469 140.210938 352.5 140.226562 352.390625 C 140.246094 352.285156 140.273438 352.183594 140.316406 352.085938 C 141.144531 350.210938 142.082031 348.394531 143.128906 346.628906 C 144.175781 344.867188 145.320312 343.175781 146.570312 341.550781 C 147.816406 339.925781 149.15625 338.378906 150.589844 336.914062 C 152.019531 335.449219 153.535156 334.074219 155.132812 332.789062 C 156.726562 331.503906 158.394531 330.316406 160.132812 329.230469 C 161.871094 328.144531 163.664062 327.167969 165.519531 326.296875 C 167.375 325.425781 169.273438 324.664062 171.21875 324.019531 C 173.164062 323.375 175.140625 322.847656 177.148438 322.4375 L 177.148438 213.609375 C 180.820312 214.925781 184.472656 216.265625 188.054688 217.769531 C 191.328125 219.097656 194.503906 220.640625 197.574219 222.390625 L 197.574219 322.4375 C 199.578125 322.847656 201.554688 323.375 203.496094 324.015625 C 205.441406 324.660156 207.339844 325.417969 209.191406 326.285156 C 211.042969 327.15625 212.839844 328.132812 214.574219 329.21875 C 216.3125 330.300781 217.976562 331.484375 219.574219 332.769531 C 221.167969 334.050781 222.679688 335.425781 224.113281 336.886719 C 225.542969 338.351562 226.882812 339.894531 228.132812 341.515625 C 229.378906 343.140625 230.523438 344.832031 231.570312 346.589844 C 232.617188 348.351562 233.554688 350.167969 234.382812 352.039062 C 234.433594 352.136719 234.46875 352.242188 234.492188 352.347656 C 234.515625 352.457031 234.523438 352.566406 234.519531 352.675781 C 234.515625 352.789062 234.496094 352.894531 234.460938 353 C 234.429688 353.105469 234.382812 353.207031 234.324219 353.300781 C 234.261719 353.394531 234.191406 353.476562 234.109375 353.550781 C 234.027344 353.628906 233.9375 353.691406 233.839844 353.742188 C 233.742188 353.792969 233.640625 353.832031 233.53125 353.855469 C 233.425781 353.882812 233.316406 353.890625 233.203125 353.886719 Z M 78.945312 104.941406 C 79.992188 107.378906 81.117188 109.78125 82.320312 112.144531 C 83.527344 114.507812 84.8125 116.828125 86.175781 119.105469 C 87.539062 121.382812 88.976562 123.613281 90.488281 125.792969 C 92.003906 127.972656 93.589844 130.097656 95.246094 132.171875 C 96.902344 134.242188 98.625 136.257812 100.417969 138.214844 C 102.210938 140.171875 104.070312 142.066406 105.988281 143.898438 C 107.910156 145.726562 109.890625 147.492188 111.929688 149.191406 C 113.96875 150.886719 116.0625 152.515625 118.214844 154.070312 C 120.363281 155.628906 122.5625 157.109375 124.8125 158.515625 C 127.0625 159.925781 129.355469 161.253906 131.695312 162.507812 C 134.035156 163.761719 136.414062 164.933594 138.832031 166.027344 C 141.25 167.117188 143.703125 168.128906 146.191406 169.054688 C 148.675781 169.980469 151.191406 170.824219 153.734375 171.582031 C 156.277344 172.335938 158.84375 173.007812 161.433594 173.59375 C 164.023438 174.175781 166.628906 174.671875 169.25 175.082031 C 171.871094 175.488281 174.503906 175.808594 177.148438 176.039062 L 177.148438 185.464844 C 178.695312 185.996094 180.199219 186.550781 181.769531 187.058594 C 184.773438 188.097656 187.777344 189.371094 190.757812 190.363281 C 193.066406 191.195312 195.378906 192.074219 197.6875 192.976562 L 197.6875 176.0625 C 200.332031 175.832031 202.960938 175.511719 205.582031 175.101562 C 208.203125 174.695312 210.804688 174.199219 213.390625 173.613281 C 215.980469 173.03125 218.542969 172.363281 221.085938 171.605469 C 223.625 170.847656 226.140625 170.007812 228.625 169.082031 C 231.109375 168.15625 233.5625 167.148438 235.976562 166.058594 C 238.394531 164.96875 240.773438 163.796875 243.109375 162.546875 C 245.449219 161.296875 247.742188 159.96875 249.992188 158.5625 C 252.238281 157.15625 254.4375 155.675781 256.585938 154.125 C 258.738281 152.570312 260.832031 150.945312 262.871094 149.253906 C 264.910156 147.558594 266.890625 145.796875 268.8125 143.96875 C 270.734375 142.140625 272.589844 140.25 274.382812 138.296875 C 276.179688 136.34375 277.902344 134.332031 279.5625 132.265625 C 281.21875 130.195312 282.808594 128.070312 284.324219 125.894531 C 285.835938 123.71875 287.277344 121.496094 288.644531 119.222656 C 290.007812 116.949219 291.296875 114.632812 292.503906 112.273438 C 293.714844 109.914062 294.84375 107.515625 295.890625 105.078125 C 295.957031 104.921875 296 104.757812 296.023438 104.589844 C 296.046875 104.421875 296.050781 104.253906 296.035156 104.082031 C 296.015625 103.914062 295.980469 103.75 295.921875 103.589844 C 295.863281 103.429688 295.789062 103.277344 295.695312 103.136719 C 295.597656 102.996094 295.488281 102.867188 295.363281 102.753906 C 295.238281 102.636719 295.097656 102.539062 294.949219 102.460938 C 294.796875 102.378906 294.640625 102.320312 294.476562 102.277344 C 294.3125 102.234375 294.144531 102.214844 293.972656 102.214844 L 80.863281 102.097656 C 80.695312 102.097656 80.527344 102.117188 80.363281 102.15625 C 80.195312 102.195312 80.039062 102.253906 79.890625 102.335938 C 79.738281 102.414062 79.601562 102.507812 79.472656 102.621094 C 79.347656 102.734375 79.238281 102.863281 79.140625 103.003906 C 79.046875 103.144531 78.972656 103.292969 78.914062 103.453125 C 78.855469 103.613281 78.816406 103.777344 78.800781 103.949219 C 78.785156 104.117188 78.789062 104.285156 78.8125 104.453125 C 78.835938 104.621094 78.882812 104.78125 78.945312 104.941406 Z M 78.945312 104.941406 " fill-opacity="1" fill-rule="nonzero"/></g></svg>