<?xml version="1.0" encoding="UTF-8"?>
<svg version="1.1" xmlns="http://www.w3.org/2000/svg" width="500" height="500">
<path d="M0 0 C28.18596996 -0.16065467 28.18596996 -0.16065467 42.24424362 -0.20101547 C49.80648771 -0.22306521 57.36855273 -0.25092709 64.93066406 -0.30175781 C71.57021867 -0.34636549 78.20963151 -0.36921876 84.84934235 -0.37950897 C87.36714977 -0.38683082 89.88494807 -0.40112583 92.40267181 -0.42292023 C115.59046242 -0.61543802 140.26134293 0.03258889 158 17 C160.47254356 19.87787857 162.52649491 22.65235486 164.1875 26.0625 C164.51105469 26.71347656 164.83460938 27.36445312 165.16796875 28.03515625 C169.03279309 37.161948 167.76391671 48.0968118 164.3125 57.1328125 C155.3360724 76.74203231 138.83719434 87.22583316 120 96 C118.515 96.495 118.515 96.495 117 97 C116.67 100.63 116.34 104.26 116 108 C135.20267853 109.91829023 147.81748996 102.46559766 163.28759766 92.39599609 C168.63237314 88.92477348 174.0991827 85.65652089 179.55880737 82.37033081 C181.87476475 80.97334081 184.18419086 79.56574793 186.49378967 78.15827942 C193.81843864 73.69711096 201.17350373 69.29111968 208.5625 64.9375 C210.08000854 64.03414917 210.08000854 64.03414917 211.62817383 63.11254883 C212.55654053 62.56880615 213.48490723 62.02506348 214.44140625 61.46484375 C215.25295166 60.986521 216.06449707 60.50819824 216.90063477 60.01538086 C219 59 219 59 222 59 C223.31176758 60.65454102 223.31176758 60.65454102 224.64453125 63.00390625 C225.14911865 63.87781006 225.65370605 64.75171387 226.17358398 65.65209961 C226.71442627 66.61253174 227.25526855 67.57296387 227.8125 68.5625 C228.98547933 70.59721953 230.16000734 72.63104692 231.3359375 74.6640625 C231.94147461 75.71625977 232.54701172 76.76845703 233.17089844 77.85253906 C236.02164231 82.75801024 238.97561502 87.59858712 241.9375 92.4375 C242.52015625 93.39188965 243.1028125 94.3462793 243.703125 95.32958984 C244.88392096 97.2636634 246.06523483 99.19742085 247.24707031 101.13085938 C248.96652119 103.94520293 250.68316293 106.7612344 252.3984375 109.578125 C252.96111328 110.50214111 253.52378906 111.42615723 254.10351562 112.37817383 C255.23883034 114.24446903 256.3729539 116.11148938 257.50585938 117.97924805 C260.47597813 122.87251034 263.46278518 127.75431855 266.48439026 132.61592102 C268.08337317 135.19147248 269.67435941 137.77191557 271.26449585 140.35293579 C272.04303852 141.61204936 272.82525926 142.86889649 273.61123657 144.12338257 C274.70725588 145.87351046 275.79040129 147.63100486 276.87109375 149.390625 C277.49943115 150.40157227 278.12776855 151.41251953 278.77514648 152.45410156 C280 155 280 155 279 158 C277.19116211 159.32421875 277.19116211 159.32421875 274.77734375 160.6875 C273.86307617 161.21126221 272.94880859 161.73502441 272.00683594 162.2746582 C270.48751465 163.12870239 270.48751465 163.12870239 268.9375 164 C266.73227408 165.26292907 264.52789032 166.52732946 262.32421875 167.79296875 C261.73834991 168.12814011 261.15248108 168.46331146 260.54885864 168.80863953 C253.40407608 172.9001757 246.32688096 177.10497046 239.25 181.3125 C238.57550812 181.71301575 237.90101624 182.11353149 237.20608521 182.52618408 C227.56191503 188.25401061 217.95545994 194.04132551 208.375 199.875 C199.72844047 205.13801712 191.07312242 210.38501196 182.375 215.5625 C180.98740479 216.39467041 180.98740479 216.39467041 179.57177734 217.24365234 C178.31034912 217.99122803 178.31034912 217.99122803 177.0234375 218.75390625 C176.29044434 219.19033447 175.55745117 219.6267627 174.80224609 220.07641602 C173 221 173 221 171 221 C171 221.66 171 222.32 171 223 C171.69496582 223.25579834 172.38993164 223.51159668 173.10595703 223.77514648 C176.35015833 225.14819844 179.26957869 226.80857479 182.3046875 228.59765625 C182.90572296 228.95081406 183.50675842 229.30397186 184.12600708 229.66783142 C186.04426917 230.79614526 187.95962178 231.92929911 189.875 233.0625 C191.12221651 233.79652875 192.36961105 234.53025507 193.6171875 235.26367188 C200.55673955 239.34835889 207.47060365 243.47481478 214.37187195 247.62379456 C218.73231696 250.24383288 223.10279163 252.8463646 227.48046875 255.4375 C228.10407288 255.80666534 228.727677 256.17583069 229.37017822 256.55618286 C230.65099203 257.31435634 231.9318149 258.07251451 233.21264648 258.83065796 C248.87830203 268.10654069 264.46066821 277.514165 280 287 C278.51818476 291.6804024 276.60853709 295.53046304 273.9375 299.625 C273.0293061 301.0482406 272.12322322 302.47282951 271.21875 303.8984375 C270.71085937 304.69862305 270.20296875 305.49880859 269.6796875 306.32324219 C266.37165323 311.59494099 263.16062882 316.92613715 259.9375 322.25 C259.20675845 323.45592388 258.47596369 324.66181551 257.74511719 325.86767578 C256.62640016 327.71369104 255.50780818 329.55978151 254.3895874 331.40609741 C251.77927964 335.71583383 249.16445394 340.02280143 246.546875 344.328125 C238.32102066 357.85942282 230.1265651 371.40875046 222 385 C217.38990811 384.43314075 213.93476775 382.43687257 210.0390625 380.0625 C209.3714389 379.66353516 208.70381531 379.26457031 208.01596069 378.85351562 C205.88147328 377.57581004 203.75320501 376.2881368 201.625 375 C200.23347428 374.1646956 198.8415503 373.33005426 197.44921875 372.49609375 C193.97098774 370.41064601 190.49754435 368.31736829 187.02542114 366.22177124 C176.81978037 360.06554125 166.58358251 353.96141662 156.33087158 347.88397217 C145.42201409 341.41730147 134.52130071 334.938075 123.66137695 328.3894043 C122.93007568 327.94894775 122.19877441 327.50849121 121.4453125 327.0546875 C120.82156738 326.67812012 120.19782227 326.30155273 119.55517578 325.91357422 C118.39476644 325.23190204 117.20373645 324.60186822 116 324 C116.03721463 338.09109698 116.09740746 352.18193631 116.18390274 366.27282047 C116.22339866 372.81592367 116.255577 379.35889186 116.27099609 385.90209961 C116.28614838 392.21758537 116.3205695 398.53269999 116.36830902 404.84802055 C116.38313738 407.25649221 116.39104184 409.66501685 116.39188385 412.07353401 C116.39425075 415.44924537 116.42131031 418.82392882 116.45410156 422.19946289 C116.4490712 423.19352646 116.44404083 424.18759003 116.43885803 425.21177673 C116.53223969 431.43215071 117.6637171 434.78149689 121 440 C121 441.32 121 442.64 121 444 C79.42 444 37.84 444 -5 444 C-5.33 443.34 -5.66 442.68 -6 442 C-5.26097691 440.4900927 -4.44613332 439.01699727 -3.59797668 437.56558228 C-0.65767033 431.88190883 -0.31582294 427.26515301 -0.43237305 420.95068359 C-0.43164291 419.89583771 -0.43091278 418.84099182 -0.43016052 417.75418091 C-0.43361656 414.30172523 -0.47238523 410.85065461 -0.51171875 407.3984375 C-0.52105389 404.99135067 -0.52816669 402.58425429 -0.53315735 400.17715454 C-0.55217165 393.86738472 -0.60122523 387.558198 -0.65667725 381.24865723 C-0.70798959 374.79996629 -0.73069699 368.35118036 -0.75585938 361.90234375 C-0.8093487 349.2679816 -0.89362195 336.63402194 -1 324 C-2.18786102 324.72239365 -2.18786102 324.72239365 -3.39971924 325.4593811 C-6.39032122 327.27771924 -9.38124514 329.09552563 -12.37237549 330.91299438 C-13.65708772 331.69375285 -14.94167814 332.4747118 -16.22613525 333.25588989 C-25.78897709 339.07153519 -35.39270299 344.81200541 -45.0390625 350.48828125 C-51.71033722 354.41425609 -58.36764947 358.36364826 -65.02371216 362.31533813 C-67.10576552 363.5510839 -69.18846472 364.78573552 -71.27124023 366.02026367 C-77.32753543 369.61245825 -83.37512389 373.21605689 -89.38671875 376.8828125 C-90.78349854 377.7325061 -90.78349854 377.7325061 -92.20849609 378.59936523 C-93.89336071 379.62693361 -95.57491983 380.65995007 -97.25244141 381.69946289 C-97.97995605 382.14281982 -98.7074707 382.58617676 -99.45703125 383.04296875 C-100.07553955 383.42477295 -100.69404785 383.80657715 -101.33129883 384.19995117 C-103 385 -103 385 -106 385 C-107.58951206 382.67350397 -108.95683274 380.3978866 -110.3125 377.9375 C-111.2115938 376.35826444 -112.11274441 374.78019863 -113.015625 373.203125 C-113.49837891 372.35556641 -113.98113281 371.50800781 -114.47851562 370.63476562 C-117.0945385 366.10457966 -119.83130956 361.64887035 -122.5625 357.1875 C-123.76190845 355.22277205 -124.96112133 353.25792468 -126.16015625 351.29296875 C-126.78164551 350.27509277 -127.40313477 349.2572168 -128.04345703 348.20849609 C-131.17591069 343.07164733 -134.29665256 337.92769807 -137.41763306 332.78387451 C-143.81022772 322.24808833 -150.21117359 311.71742848 -156.62304688 301.19335938 C-157.42452148 299.87754883 -157.42452148 299.87754883 -158.2421875 298.53515625 C-158.7047998 297.775979 -159.16741211 297.01680176 -159.64404297 296.23461914 C-160.09150879 295.49719482 -160.53897461 294.75977051 -161 294 C-161.57250488 293.1433374 -162.14500977 292.2866748 -162.73486328 291.40405273 C-163.36110596 290.21404663 -163.36110596 290.21404663 -164 289 C-162.69182861 285.07548582 -161.2376153 284.68955904 -157.68359375 282.65625 C-155.97320923 281.6672168 -155.97320923 281.6672168 -154.22827148 280.65820312 C-153.61249237 280.30765869 -152.99671326 279.95711426 -152.36227417 279.59594727 C-150.40739926 278.48286094 -148.45893962 277.3592605 -146.51196289 276.23242188 C-144.45522639 275.04208953 -142.39818194 273.85233761 -140.33934021 272.66564941 C-132.83511987 268.33922315 -125.38314399 263.92625263 -117.9375 259.5 C-117.2735321 259.10579865 -116.60956421 258.71159729 -115.92547607 258.30545044 C-106.27018061 252.5721158 -96.65421334 246.77649797 -87.0625 240.9375 C-71.35597638 231.37920255 -71.35597638 231.37920255 -63.875 226.9375 C-63.18801025 226.52556396 -62.50102051 226.11362793 -61.79321289 225.68920898 C-57.23475582 223 -57.23475582 223 -55 223 C-55 222.34 -55 221.68 -55 221 C-55.7022168 220.73985107 -56.40443359 220.47970215 -57.12792969 220.21166992 C-60.24218364 218.89782749 -63.04036961 217.32834262 -65.953125 215.61328125 C-66.52147064 215.2797464 -67.08981628 214.94621155 -67.67538452 214.60256958 C-69.53569451 213.50941201 -71.3929005 212.41110142 -73.25 211.3125 C-74.55767255 210.54221674 -75.865454 209.77211832 -77.17333984 209.00219727 C-86.37001413 203.58187483 -95.53289412 198.10562388 -104.67822266 192.59912109 C-112.3052758 188.00785576 -119.96035906 183.4656899 -127.625 178.9375 C-139.81587364 171.7317551 -151.92559687 164.39914099 -164 157 C-162.64022949 152.28707812 -160.59652115 148.45111727 -157.9375 144.375 C-157.0293061 142.9517594 -156.12322322 141.52717049 -155.21875 140.1015625 C-154.71085937 139.30137695 -154.20296875 138.50119141 -153.6796875 137.67675781 C-150.37165323 132.40505901 -147.16062882 127.07386285 -143.9375 121.75 C-143.20675845 120.54407612 -142.47596369 119.33818449 -141.74511719 118.13232422 C-140.62640016 116.28630896 -139.50780818 114.44021849 -138.3895874 112.59390259 C-135.77927964 108.28416617 -133.16445394 103.97719857 -130.546875 99.671875 C-122.32102066 86.14057718 -114.1265651 72.59124954 -106 59 C-101.45670554 59.57011586 -98.05716935 61.48921006 -94.21484375 63.83203125 C-93.56610291 64.21966644 -92.91736206 64.60730164 -92.2489624 65.00668335 C-90.14096039 66.26846424 -88.03927764 67.54038318 -85.9375 68.8125 C-84.47476784 69.69053108 -83.01163039 70.56788732 -81.5480957 71.44458008 C-77.98352686 73.58183445 -74.42363729 75.72672872 -70.86547852 77.87463379 C-68.37631215 79.37624514 -65.88379127 80.87222856 -63.390625 82.3671875 C-62.59487061 82.84526855 -61.79911621 83.32334961 -60.97924805 83.81591797 C-59.44977409 84.73128866 -57.91736291 85.64176915 -56.38208008 86.54736328 C-52.27111566 88.98238163 -48.2320724 91.48820881 -44.25172424 94.13285828 C-41.96134775 95.64406793 -39.64733811 97.11677656 -37.33023071 98.58657837 C-35.70351787 99.63680773 -34.10790011 100.73474068 -32.5144043 101.8347168 C-21.02986894 109.05875992 -15.59306091 107.2912245 0 108 C0 72.36 0 36.72 0 0 Z M116 28 C116 43.84 116 59.68 116 76 C135.67374758 68.24407575 135.67374758 68.24407575 148.3125 51.99609375 C150.36202511 46.04548391 150.44616144 41.12301295 148.21484375 35.1796875 C145.5465542 30.39220979 141.23601913 27.35338 136.625 24.5625 C128.13614994 22.7434607 124.05520179 23.97239911 116 28 Z " fill="#D3E8D6" transform="translate(192,28)"/>
<path d="M0 0 C28.18596996 -0.16065467 28.18596996 -0.16065467 42.24424362 -0.20101547 C49.80648771 -0.22306521 57.36855273 -0.25092709 64.93066406 -0.30175781 C71.57021867 -0.34636549 78.20963151 -0.36921876 84.84934235 -0.37950897 C87.36714977 -0.38683082 89.88494807 -0.40112583 92.40267181 -0.42292023 C115.59046242 -0.61543802 140.26134293 0.03258889 158 17 C160.47254356 19.87787857 162.52649491 22.65235486 164.1875 26.0625 C164.51105469 26.71347656 164.83460938 27.36445312 165.16796875 28.03515625 C169.03279309 37.161948 167.76391671 48.0968118 164.3125 57.1328125 C155.3360724 76.74203231 138.83719434 87.22583316 120 96 C119.01 96.33 118.02 96.66 117 97 C116.67 100.63 116.34 104.26 116 108 C144.05 108 172.1 108 201 108 C201.66 109.32 202.32 110.64 203 112 C202.03081391 114.65991135 201.01839127 116.90376617 199.6875 119.375 C199.13642578 120.43195068 199.13642578 120.43195068 198.57421875 121.51025391 C192.78225861 132.41665182 186.0702643 142.63378085 178 152 C177.19046875 152.94359375 176.3809375 153.8871875 175.546875 154.859375 C154.70353563 178.6271427 128.28958904 193.51245517 98.125 202.25 C97.23272705 202.50861816 96.3404541 202.76723633 95.42114258 203.03369141 C87.36140169 205.30188846 80.49973089 206 72 206 C72 213.59 72 221.18 72 229 C68.30377611 228.26075522 65.2284724 227.45900192 61.734375 226.1875 C60.76242188 225.83429688 59.79046875 225.48109375 58.7890625 225.1171875 C57.78617188 224.74851563 56.78328125 224.37984375 55.75 224 C54.73164063 223.63132813 53.71328125 223.26265625 52.6640625 222.8828125 C45.13058036 220.13058036 45.13058036 220.13058036 44 219 C43.92755947 216.98035801 43.91622812 214.95832876 43.9375 212.9375 C43.94652344 211.83277344 43.95554688 210.72804687 43.96484375 209.58984375 C43.98224609 208.30787109 43.98224609 208.30787109 44 207 C42.61554688 206.87044922 42.61554688 206.87044922 41.203125 206.73828125 C12.03356413 203.59650048 -14.77508738 193.0370993 -38 175 C-38.89203125 174.31292969 -39.7840625 173.62585938 -40.703125 172.91796875 C-58.18684852 159.05587367 -71.13481547 142.38472841 -82 123 C-82.56074219 122.01515625 -83.12148437 121.0303125 -83.69921875 120.015625 C-87.13169732 113.65848661 -87.13169732 113.65848661 -86 108 C-57.62 108 -29.24 108 0 108 C0 72.36 0 36.72 0 0 Z M116 28 C116 43.84 116 59.68 116 76 C135.67374758 68.24407575 135.67374758 68.24407575 148.3125 51.99609375 C150.36202511 46.04548391 150.44616144 41.12301295 148.21484375 35.1796875 C145.5465542 30.39220979 141.23601913 27.35338 136.625 24.5625 C128.13614994 22.7434607 124.05520179 23.97239911 116 28 Z " fill="#7B9A80" transform="translate(192,28)"/>
<path d="M0 0 C28.18596996 -0.16065467 28.18596996 -0.16065467 42.24424362 -0.20101547 C49.80648771 -0.22306521 57.36855273 -0.25092709 64.93066406 -0.30175781 C71.57021867 -0.34636549 78.20963151 -0.36921876 84.84934235 -0.37950897 C87.36714977 -0.38683082 89.88494807 -0.40112583 92.40267181 -0.42292023 C115.59046242 -0.61543802 140.26134293 0.03258889 158 17 C160.47254356 19.87787857 162.52649491 22.65235486 164.1875 26.0625 C164.51105469 26.71347656 164.83460938 27.36445312 165.16796875 28.03515625 C169.03279309 37.161948 167.76391671 48.0968118 164.3125 57.1328125 C155.3360724 76.74203231 138.83719434 87.22583316 120 96 C118.515 96.495 118.515 96.495 117 97 C116.67 100.63 116.34 104.26 116 108 C77.72 108 39.44 108 0 108 C0 72.36 0 36.72 0 0 Z M116 28 C116 43.84 116 59.68 116 76 C135.67374758 68.24407575 135.67374758 68.24407575 148.3125 51.99609375 C150.36202511 46.04548391 150.44616144 41.12301295 148.21484375 35.1796875 C145.5465542 30.39220979 141.23601913 27.35338 136.625 24.5625 C128.13614994 22.7434607 124.05520179 23.97239911 116 28 Z " fill="#D3E8D6" transform="translate(192,28)"/>
<path d="M0 0 C6.5001142 1.95003426 12.44675097 3.8679479 18.5625 6.625 C19.27212891 6.93695313 19.98175781 7.24890625 20.71289062 7.5703125 C25.85231551 9.85231551 25.85231551 9.85231551 27 11 C27.09627113 12.73359598 27.12187568 14.47114646 27.12025452 16.20741272 C27.12231651 17.90071968 27.12231651 17.90071968 27.12442017 19.62823486 C27.11902725 21.50234039 27.11902725 21.50234039 27.11352539 23.41430664 C27.11367142 24.72143112 27.11381744 26.0285556 27.1139679 27.37528992 C27.11425586 30.97017099 27.10835928 34.56501897 27.10139394 38.15989232 C27.09516026 41.91286252 27.09455659 45.6658334 27.09336853 49.41880798 C27.09025526 56.53030826 27.08204192 63.64179325 27.07201904 70.75328678 C27.06085778 78.84747066 27.05534742 86.94165526 27.05032361 95.03584492 C27.03985931 111.69057225 27.02225994 128.34528418 27 145 C27.62072891 145.13440491 28.24145782 145.26880981 28.8809967 145.4072876 C29.69378586 145.58515808 30.50657501 145.76302856 31.34399414 145.94628906 C32.15034805 146.12194397 32.95670197 146.29759888 33.78749084 146.47857666 C51.58292243 150.67243654 64.94190936 164.55116594 75 179 C76.9136558 182.19137111 77 183.04235367 77 187 C35.42 187 -6.16 187 -49 187 C-49.33 186.34 -49.66 185.68 -50 185 C-46.48294925 175.74285698 -39.84577479 168.87541018 -33 162 C-32.04673828 160.99453125 -32.04673828 160.99453125 -31.07421875 159.96875 C-26.90466488 155.90089257 -22.15092416 153.30695427 -17 150.6875 C-16.33524658 150.34944336 -15.67049316 150.01138672 -14.9855957 149.66308594 C-10.22580465 147.35254185 -6.40886684 146.35221671 -1 145 C-0.67 97.15 -0.34 49.3 0 0 Z " fill="#7C9A81" transform="translate(236,285)"/>
<path d="M0 0 C7.93102933 8.58913602 10.29128689 16.79706488 10.171875 28.3203125 C9.02932981 43.90789337 -0.68516667 56.13695041 -12.1015625 66.05078125 C-27.62483332 77.72172789 -43.45490486 83.55920601 -62.734375 83.34375 C-64.22223479 83.33814265 -65.71010018 83.33387795 -67.19796753 83.33088684 C-71.08109296 83.3195275 -74.96387242 83.29013926 -78.84686279 83.2567749 C-82.82234011 83.22587979 -86.79787428 83.21234031 -90.7734375 83.19726562 C-98.54963551 83.16525918 -106.32555021 83.11417344 -114.1015625 83.05078125 C-111.15883318 81.0889617 -108.96628257 80.27730041 -105.60546875 79.28125 C-104.49977539 78.95253906 -103.39408203 78.62382813 -102.25488281 78.28515625 C-101.06991211 77.9396875 -99.88494141 77.59421875 -98.6640625 77.23828125 C-96.83439941 76.69880859 -96.83439941 76.69880859 -94.96777344 76.1484375 C-87.96443739 74.10495556 -80.95030245 72.22846596 -73.8515625 70.55078125 C-52.33879185 65.38154144 -24.6872898 57.97215723 -11.1015625 39.05078125 C-8.09594513 33.46892042 -7.43666664 27.49294776 -9.1015625 21.42578125 C-11.26807311 15.67160858 -15.27081742 12.73392697 -20.4140625 9.67578125 C-28.49053882 7.79753094 -35.08183368 9.36319963 -42.5390625 12.55078125 C-50.31324006 15.62263318 -57.32269776 18.22711653 -65.5390625 15.1328125 C-67.7890625 14.05078125 -67.7890625 14.05078125 -71.1015625 12.05078125 C-71.1015625 11.72078125 -71.1015625 11.39078125 -71.1015625 11.05078125 C-64.1715625 10.06078125 -64.1715625 10.06078125 -57.1015625 9.05078125 C-59.669375 9.11265625 -59.669375 9.11265625 -62.2890625 9.17578125 C-66.4349235 9.27568152 -69.32934161 8.80241581 -73.1015625 7.05078125 C-73.69689827 2.28809507 -73.3134265 -0.19909242 -70.4765625 -4.13671875 C-65.81273897 -9.8101229 -60.18292208 -13.33278929 -52.89453125 -14.43359375 C-34.01763332 -15.82430779 -14.47089456 -13.42188919 0 0 Z " fill="#7C9A81" transform="translate(349.1015625,43.94921875)"/>
<path d="M0 0 C7.14557568 2.30502441 14.05154688 5.17051326 21 8 C21.85464844 8.33 22.70929688 8.66 23.58984375 9 C27.90769983 10.74900499 31.35221209 12.92468447 35.0625 15.75 C39.26568248 18.90095095 43.5626636 21.52584692 48.2578125 23.86328125 C48.94981247 24.20802994 49.64181244 24.55277863 50.3547821 24.90797424 C57.54025751 28.39691252 64.96240953 31.05744493 72.50958252 33.64492798 C121.87823337 50.6356416 121.87823337 50.6356416 132.9375 72.375 C136.91246335 80.86390479 137.45534315 90.30915145 135.12890625 99.40625 C132.48697498 106.12801611 128.80550012 111.64272012 124 117 C123.39285156 117.68835938 122.78570312 118.37671875 122.16015625 119.0859375 C117.15163418 124.43245799 111.44946202 128.52554234 105 132 C104.34 132 103.68 132 103 132 C102.82408381 128.81321064 102.71863222 125.6276836 102.625 122.4375 C102.57472656 121.54224609 102.52445312 120.64699219 102.47265625 119.72460938 C102.36563969 114.85535589 102.56569949 111.89608697 105.875 108.17578125 C106.41979004 107.62865479 106.96458008 107.08152832 107.52587891 106.51782227 C111.97109907 101.94082098 113.24003056 94.59928085 113.5625 88.4375 C113.24298324 80.97145838 109.9822973 74.89416347 105.0625 69.375 C93.34587638 58.68483272 76.89832498 53.51053602 62.234375 48.29296875 C36.84425265 39.25665943 13.38474727 29.33482596 1.28515625 3.87890625 C0 1 0 1 0 0 Z " fill="#7C9B81" transform="translate(169,225)"/>
<path d="M0 0 C0.61415264 4.47649038 0.84012048 8.5432633 0 13 C-2.22543483 15.64809493 -4.51920924 17.3038235 -7.3828125 19.23046875 C-12.25806428 22.52672108 -16.57902285 27.17399367 -18 33 C-18.78474013 40.97819134 -16.3523829 45.73280153 -11.75 52.125 C-8.46137806 55.56310475 -4.88853081 58.27899333 -1 61 C-1.66 62.32 -2.32 63.64 -3 65 C-10.28011006 64.31748968 -16.52008468 59.23129789 -21.390625 54.0703125 C-26.28786032 47.77047095 -28.91718783 40.8218809 -28.47265625 32.8203125 C-26.55878478 21.40035218 -20.24968032 12.89260688 -11.265625 5.859375 C-3.02439024 0 -3.02439024 0 0 0 Z " fill="#7D9C82" transform="translate(227,360)"/>
<path d="M0 0 C1.65 0.33 3.3 0.66 5 1 C4.67 2.65 4.34 4.3 4 6 C2.35 5.67 0.7 5.34 -1 5 C-0.67 3.35 -0.34 1.7 0 0 Z " fill="#CBE1CE" transform="translate(292,36)"/>
</svg>
